<svg xmlns="http://www.w3.org/2000/svg" viewBox="0 0 512 512"  xmlns:v="https://vecta.io/nano" fill="#de496e" ><path d="M408.299 98.512l-32.643 371.975H136.344L103.708 98.512l-41.354 3.625 33.232 378.721C97.335 498.314 112.481 512 130.076 512h251.849c17.588 0 32.74-13.679 34.518-31.391l33.211-378.472-41.355-3.625zM332.108 0H179.892c-19.076 0-34.595 15.519-34.595 34.595v65.73h41.513V41.513h138.378v58.811h41.513v-65.73C366.703 15.519 351.184 0 332.108 0z"/><path d="M477.405 79.568H34.595a20.76 20.76 0 0 0-20.757 20.757 20.76 20.76 0 0 0 20.757 20.757h442.811a20.76 20.76 0 0 0 20.757-20.757 20.76 20.76 0 0 0-20.758-20.757z"/></svg>