<svg xmlns="http://www.w3.org/2000/svg" viewBox="0 0 55 55"  xmlns:v="https://vecta.io/nano"><path d="M54.7 27.5c0-4-.9-7.9-2.5-11.3a7.14 7.14 0 0 0 1.9-4.9c0-4.1-3.3-7.4-7.4-7.4-1.5 0-2.8.4-4 1.2-4.3-3-9.6-4.7-15.2-4.7C12.5.4.3 12.6.3 27.6c0 7.9 3.4 15.1 8.8 20h0l.9.7c.1 0 .1.1.2.1l1.4 1.1c.2.1.3.2.5.3.5.4 1.1.7 1.6 1 .1.1.2.1.4.2.6.3 1.2.7 1.9 1 0 0 .1 0 .1.1 2.1 1 4.3 1.7 6.6 2.1h.2l2.2.3h.3c.7.1 1.5.1 2.2.1s1.5 0 2.2-.1h.3l2.2-.3h.2c2.3-.4 4.4-1.1 6.5-2 .1 0 .2-.1.2-.1l1.8-.9c.1-.1.3-.2.4-.3.5-.3 1.1-.6 1.6-1 .2-.1.4-.3.5-.4.4-.3.9-.6 1.3-1 .1-.1.2-.1.3-.2l.9-.8c5.3-4.9 8.7-12 8.7-20zm-2.6-16.3c0 3-2.4 5.4-5.4 5.4s-5.4-2.4-5.4-5.4 2.4-5.4 5.4-5.4 5.4 2.4 5.4 5.4zm-9.6 36.9c-.3.3-.7.5-1.1.7-.2.1-.3.2-.5.3-.5.3-1 .6-1.4.8-.1.1-.2.1-.3.2-1.1.6-2.3 1.1-3.5 1.5h-.1c-.6.2-1.3.4-1.9.6s-1.3.3-2 .4h-.1c-.6.1-1.2.2-1.9.2h-.3c-.6 0-1.2.1-1.9.1-.6 0-1.3 0-1.9-.1h-.3c-.6-.1-1.3-.1-1.9-.2h-.1c-1.3-.2-2.6-.5-3.9-1h-.1c-.6-.2-1.3-.5-1.9-.7s-1.1-.5-1.7-.8c-.1 0-.1-.1-.2-.1l-1.5-.9c-.1-.1-.3-.2-.4-.3-.5-.3-.9-.6-1.3-.9l-.1-.1s.1 0 .1-.1l7.9-4.3c1.4-.7 2.2-2.2 2.2-3.7v-3.6l-.2-.3s-2.2-2.7-3-6.2l-.2-.4-.4-.2c-.5-.3-.8-.8-.8-1.4v-3.5c0-.5.2-.9.6-1.2l.3-.3v-5.7s-.3-2.4 1.4-4.4c1.4-1.6 3.9-2.5 7.4-2.5 3.4 0 5.9.8 7.3 2.5 1.7 1.9 1.4 4.4 1.4 4.4v5.7l.3.3c.4.3.6.8.6 1.2v3.5c0 .7-.5 1.4-1.2 1.6l-.5.2-.2.5c-.6 1.8-1.4 3.5-2.5 5-.3.4-.5.7-.7.9l-.2.3v3.7c0 1.6.9 3.1 2.3 3.8l8.5 4.2c.1 0 .1.1.2.1-.1.1-.2.2-.3.2zm1.9-1.5c-.3-.2-.6-.4-.9-.5L35 41.9c-.8-.4-1.2-1.1-1.2-2v-3c.2-.2.4-.5.6-.8 1.1-1.5 2-3.3 2.6-5.1 1.3-.6 2.1-1.9 2.1-3.3v-3.5c0-.9-.3-1.7-.9-2.4V17c.1-.5.2-3.4-1.9-5.9-1.8-2-4.8-3.1-8.8-3.1s-7 1.1-8.9 3.2c-2.1 2.4-1.9 5.3-1.9 5.9v4.7c-.6.7-.9 1.5-.9 2.4v3.5c0 1.1.5 2.1 1.3 2.8.8 3.2 2.5 5.6 3.1 6.4v2.9c0 .8-.4 1.6-1.2 2L11.2 46c-.3.1-.5.3-.8.5C5.3 41.8 2 35 2 27.5 2 13.4 13.4 2 27.5 2c5.1 0 9.9 1.5 13.8 4.1-1.3 1.3-2 3.1-2 5.1 0 4.1 3.3 7.4 7.4 7.4 1.5 0 3-.5 4.2-1.3 1.4 3.1 2.1 6.6 2.1 10.2 0 7.6-3.3 14.4-8.6 19.1z" stroke="#000" stroke-width=".5" stroke-miterlimit="10"/></svg>