<svg id="cart" viewBox="0 0 512 512"  xmlns="http://www.w3.org/2000/svg" > <path d="M458.7 422.2l-22.9-288.1c-1.4-18.6-17.1-33.1-35.7-33.1H355v-2c0-54.6-44.4-99-99-99s-99 44.4-99 99v2h-45.2c-18.6 0-34.3 14.5-35.7 33.1L53.3 422.3c-1.8 23.1 6.2 46 22 63s38 26.7 61.2 26.7h239.2c23.1 0 45.4-9.7 61.2-26.7 15.6-17 23.6-40 21.8-63.1zM187 99c0-38 30.9-69 69-69s69 30.9 69 69v2H187v-2zm227.8 365.9c-10.2 11-24.1 17.1-39.2 17.1H136.4c-15 0-28.9-6.1-39.2-17.1-10.2-11-15.2-25.4-14.1-40.3L106 136.4c.2-3 2.8-5.4 5.8-5.4H157v36.9a14.98 14.98 0 1 0 30 0V131h138v36.9a14.98 14.98 0 1 0 30 0V131h45.2c3 0 5.6 2.4 5.8 5.4l22.9 288.1c1.1 15-3.9 29.4-14.1 40.4z"></path></svg>