<svg xmlns="http://www.w3.org/2000/svg" viewBox="0 0 490.688 490.688" xmlns:v="https://vecta.io/nano"><path d="M472.328 120.53L245.213 347.665 18.098 120.53a10.67 10.67 0 0 0-15.083.262 10.67 10.67 0 0 0 0 14.82l234.667 234.667a10.67 10.67 0 0 0 15.083 0L487.432 135.61a10.67 10.67 0 0 0-14.821-15.345l-.262.262-.02.001z" fill="#ffc107"/><path d="M245.213 373.415c-2.83.005-5.548-1.115-7.552-3.115L2.994 135.633a10.67 10.67 0 0 1 .262-15.083 10.67 10.67 0 0 1 14.82 0l227.136 227.115L472.327 120.53a10.67 10.67 0 0 1 15.345 14.821L252.744 370.28a10.67 10.67 0 0 1-7.531 3.136z"/></svg>