<svg xmlns="http://www.w3.org/2000/svg" viewBox="0 0 512 512" xmlns:v="https://vecta.io/nano"><path d="M467.004 156.057H321.43l-47.728-47.928c-27.058-27.06-69.996-29.436-99.875-5.53l-91.5 73.2c-8.1-12-21.805-19.906-37.332-19.906H15A15 15 0 0 0 0 170.888v239.977c0 8.283 6.715 15 15 15h29.997c17.596 0 32.857-10.16 40.25-24.915 44.88 16.533 91.866 24.915 139.84 24.915h59.887c24.81 0 44.996-20.185 44.996-44.996a44.73 44.73 0 0 0-3.181-16.584c19.095-5.203 33.178-22.688 33.178-43.4a44.73 44.73 0 0 0-3.181-16.584c19.095-5.203 33.178-22.688 33.178-43.4 0-5.27-.92-10.328-2.59-15.032h79.633c24.81 0 44.996-20.185 44.996-44.996v-.1c0-24.755-20.185-44.695-44.996-44.695zm-407 224.81a15.02 15.02 0 0 1-14.999 14.999H29.997v-209.98h15a15.02 15.02 0 0 1 14.999 14.999v179.982zm422.01-180.016c0 8.27-6.728 15.2-15 15.2H285.122c-8.283 0-15 6.515-15 14.8s6.715 15 15 15h59.187c.22.01.436.033.657.033a15.02 15.02 0 0 1 14.999 14.999 15.02 15.02 0 0 1-14.999 14.999h-59.994c-8.283 0-15 6.715-15 15a15 15 0 0 0 14.999 14.999h29.997a15.02 15.02 0 0 1 14.999 14.999 15.02 15.02 0 0 1-14.999 14.999h-29.997c-8.283 0-15 6.715-15 15a15 15 0 0 0 14.999 14.999 15.02 15.02 0 0 1 14.999 14.999 15.02 15.02 0 0 1-14.999 14.999h-59.887c-46.424 0-91.848-8.47-135.094-25.182V208.08l102.575-82.06c17.926-14.343 43.69-12.916 59.925 3.32l26.518 26.718c-50.664 0-.4-.067-54.032-.067-8.283 0-15 6.715-15 15s6.715 14.8 15 14.8l242.026.067c8.27 0 15 6.683 15 14.9v.097z"/></svg>