<svg xmlns="http://www.w3.org/2000/svg" viewBox="0 0 19.72 19.72"><defs><style>.cls-1{fill:#ff4300;}</style></defs><title>Recurso 2</title><g id="Capa_2" data-name="Capa 2"><g id="Capa_1-2" data-name="Capa 1"><path class="cls-1" d="M19.29,17.21l-5.5-5.51a7.55,7.55,0,0,0-.94-9.5A7.55,7.55,0,0,0,2.2,2.2,7.53,7.53,0,0,0,7.53,15.05a7.43,7.43,0,0,0,4.18-1.27l5.5,5.51a1.47,1.47,0,0,0,1,.43,1.44,1.44,0,0,0,1-.43,1.46,1.46,0,0,0,0-2.08m-15-6.44a4.59,4.59,0,0,1,6.49-6.49,4.6,4.6,0,0,1,0,6.49,4.71,4.71,0,0,1-6.49,0"/></g></g></svg>